<svg width="255" height="65" viewBox="0 0 255 65" fill="none" xmlns="http://www.w3.org/2000/svg">
<path d="M13.1085 0.225322C7.89513 2.18248 2.16475 7.70464 0.354768 14.6414C-1.93778 23.4276 7.6007 27.1442 8.38368 25.9273C9.30439 24.4956 6.6745 24.0117 6.13305 19.4525C5.43341 13.564 8.48798 6.98457 12.3325 4.09759C13.0461 3.56089 13.0127 4.3078 13.0127 5.68845C13.0127 8.1577 12.8605 30.3251 12.8605 34.9514C12.8605 41.2111 12.572 43.1879 12.0536 45.1415C11.5291 47.1205 10.6847 48.4583 11.324 48.9735C12.0386 49.5495 15.0897 48.1787 16.8557 45.9698C18.9736 43.3203 19.7152 40.1377 19.8484 36.6827C20.0091 32.517 20.0021 25.9067 20.0091 22.1364C20.0151 18.6787 20.074 8.55351 19.9412 2.46648C19.9088 0.972672 15.2888 -0.593588 13.1085 0.225322ZM198.221 29.5214C198.052 32.776 197.248 35.3195 196.251 37.1138C194.32 40.5876 190.312 41.6659 188.611 36.6728C187.684 33.9509 187.64 29.4051 188.306 25.6066C188.985 21.7375 190.88 18.8152 194.018 19.0786C197.113 19.3393 198.561 22.9133 198.221 29.5218V29.5214ZM146.047 49.7128C146.005 55.12 145.055 59.8608 143.019 61.2383C140.131 63.191 136.249 61.7258 137.053 57.7802C137.764 54.2886 141.128 50.7227 146.055 46.3656C146.055 46.3656 146.065 47.3594 146.047 49.7128ZM145.258 29.4896C145.082 32.454 144.224 35.4313 143.289 37.1138C141.358 40.5876 137.321 41.6735 135.649 36.6728C134.505 33.2559 134.779 28.8344 135.344 26.048C136.079 22.4329 137.859 19.079 141.056 19.079C144.164 19.079 145.697 22.1351 145.258 29.4896ZM115.035 29.4449C114.845 32.5837 114.162 35.2077 113.065 37.1138C111.081 40.5639 107.156 41.6579 105.425 36.6728C104.177 33.0783 104.602 28.1774 105.121 25.5297C105.891 21.6006 107.821 18.8152 110.832 19.079C113.926 19.3501 115.429 22.9133 115.035 29.4449ZM253.542 33.1114C252.786 33.1114 252.441 33.81 252.155 34.9854C251.165 39.075 250.124 39.9977 248.782 39.9977C247.282 39.9977 245.935 37.9734 245.588 33.9205C245.316 30.7334 245.36 24.8664 245.708 19.0303C245.779 17.8312 245.41 16.6447 241.821 15.4765C240.277 14.9737 238.033 14.2336 236.915 16.6514C233.758 23.4826 232.522 28.906 232.231 31.1082C232.216 31.2222 232.06 31.2459 232.033 30.9794C231.847 29.215 231.434 26.0082 231.382 19.2718C231.372 17.9573 231.061 16.8388 229.443 15.9228C228.392 15.328 225.203 14.2769 224.054 15.5279C223.059 16.5503 221.907 19.3027 220.709 22.5658C219.736 25.2179 219.059 27.0114 219.059 27.0114C219.059 27.0114 219.072 19.8563 219.083 17.142C219.088 16.1183 218.305 15.777 218.068 15.7153C217.005 15.4389 214.909 14.9769 214.02 14.9769C212.922 14.9769 212.654 15.5261 212.654 16.3276C212.654 16.4327 212.48 25.7479 212.48 32.2616C212.48 32.5448 212.48 32.8534 212.482 33.1816C211.875 36.1755 209.906 40.2392 207.766 40.2392C205.622 40.2392 204.611 38.5406 204.611 30.775C204.611 26.2448 204.762 24.2747 204.837 20.9982C204.88 19.1108 204.964 17.6617 204.959 17.333C204.943 16.3244 202.998 15.8159 202.092 15.6281C201.182 15.4389 200.392 15.3651 199.775 15.3968C198.901 15.4416 198.283 15.9546 198.283 16.6612C198.283 17.0405 198.287 17.7605 198.287 17.7605C197.162 16.1755 195.352 15.0726 194.148 14.7528C190.904 13.8896 187.52 14.6544 184.967 17.8563C182.938 20.3998 181.715 23.2814 181.233 27.4206C180.881 30.4472 180.996 33.5157 181.622 36.1111C180.866 39.0397 179.463 40.2392 177.927 40.2392C175.696 40.2392 174.079 36.977 174.267 31.3336C174.39 27.6219 175.219 25.0171 176.125 21.2486C176.511 19.6421 176.197 18.8013 175.41 17.9953C174.688 17.2561 173.15 16.8781 170.939 17.3424C169.364 17.6738 167.112 18.0302 165.052 18.304C165.052 18.304 165.176 17.8589 165.278 17.0754C165.814 12.9652 160.83 13.2984 159.24 14.611C158.291 15.3951 157.645 16.3195 157.4 17.9815C157.011 20.6194 159.411 21.8636 159.411 21.8636C158.624 25.0945 156.693 29.3147 154.7 32.3663C153.633 34.001 152.816 35.2126 151.762 36.5002C151.727 31.3328 151.765 26.1652 151.875 20.9986C151.918 19.1112 152.002 17.7006 151.998 17.3714C151.986 16.6344 151.505 16.3553 150.506 16.0029C149.621 15.6907 148.576 15.4751 147.492 15.3991C146.124 15.3043 145.299 15.9541 145.321 16.7234C145.325 16.8687 145.325 17.7605 145.325 17.7605C144.2 16.1755 142.39 15.0726 141.186 14.7528C137.942 13.8896 134.558 14.6544 132.005 17.8563C129.976 20.3998 128.648 23.9697 128.271 27.3893C127.921 30.576 127.985 33.284 128.463 35.5659C127.948 37.8504 126.464 40.2396 124.788 40.2396C122.644 40.2396 121.425 38.5406 121.425 30.775C121.425 26.2448 121.576 24.2747 121.651 20.9982C121.695 19.1112 121.778 17.6617 121.774 17.333C121.758 16.3244 119.812 15.8164 118.906 15.6281C117.959 15.4313 117.141 15.3597 116.513 15.4013C115.684 15.4563 115.101 16.1214 115.101 16.6174V17.7605C113.976 16.1755 112.166 15.0726 110.962 14.7528C107.718 13.8896 104.353 14.6669 101.781 17.8563C100.104 19.9355 98.7462 22.2406 98.0476 27.3437C97.8455 28.8183 97.7562 30.1998 97.7681 31.4901C97.0994 35.1558 94.1452 39.3805 91.7294 39.3805C90.3156 39.3805 88.9687 36.9224 88.9687 31.6847C88.9687 24.7076 89.4508 14.7734 89.5326 13.8163C89.5326 13.8163 92.5852 13.7698 93.1761 13.7635C94.6991 13.7483 96.0779 13.7809 98.1065 13.6875C99.1235 13.6414 100.104 10.3689 99.0536 9.96413C98.5776 9.78076 95.2146 9.62064 93.8812 9.59515C92.7604 9.57279 89.6394 9.36527 89.6394 9.36527C89.6394 9.36527 89.9194 2.7715 89.9848 2.07514C90.0396 1.49416 89.2013 1.1954 88.7212 1.01427C87.5525 0.571491 86.507 0.359049 85.2679 0.130058C83.5552 -0.186593 82.7787 0.12335 82.627 1.41813C82.3985 3.38378 82.2802 9.1412 82.2802 9.1412C81.0237 9.1412 76.731 8.92115 75.4744 8.92115C74.3067 8.92115 73.0461 13.4222 74.661 13.4777C76.5184 13.5421 79.7556 13.5985 81.9015 13.6557C81.9015 13.6557 81.8056 23.7537 81.8056 26.8719C81.8056 27.2028 81.8076 27.5226 81.8096 27.8326C80.6284 33.3493 76.4685 36.3298 76.4685 36.3298C77.3618 32.6798 75.5368 29.9386 72.2497 27.6183C71.0385 26.7636 68.6477 25.145 65.9729 23.3713C65.9729 23.3713 67.5219 22.0027 68.8962 19.2494C69.8693 17.2985 69.9117 15.0672 67.5219 14.5748C63.5735 13.7608 60.3184 16.3598 59.3472 19.1345C58.5947 21.284 58.9959 22.8784 60.4701 24.535C60.5773 24.6562 60.6946 24.7801 60.8144 24.9044C59.9236 26.4439 58.699 28.5168 57.662 30.1242C54.7836 34.5878 52.6093 38.1175 50.966 38.1175C49.6526 38.1175 49.67 34.5332 49.67 31.1775C49.67 28.2847 49.9086 23.9352 50.0992 19.4328C50.1621 17.9435 49.3307 17.095 47.9384 16.3267C47.092 15.8597 45.286 14.942 44.2401 14.942C42.6741 14.942 38.1569 15.133 33.8892 26.1979C33.3512 27.5924 32.2943 30.1336 32.2943 30.1336L32.3856 16.8276C32.3856 16.5154 32.1999 16.214 31.7753 16.0078C31.0562 15.6576 29.1354 14.942 27.4272 14.942C26.6138 14.942 26.2071 15.281 26.2071 15.9572L26.0584 36.7748C26.0584 38.3567 26.1043 40.2021 26.2789 41.0089C26.4526 41.8166 26.7346 42.4741 27.0829 42.865C27.4317 43.2554 27.8344 43.5537 28.4986 43.6763C29.1169 43.7903 32.5024 44.1799 32.6785 43.0206C32.8891 41.6306 32.8976 40.1278 34.6751 34.522C37.4428 25.7944 41.0508 21.5367 42.7475 20.0241C43.0444 19.7602 43.3827 19.7441 43.3663 20.1766C43.2944 22.0899 43.0394 26.8719 42.8682 30.9329C42.4086 41.8032 44.6148 43.8181 47.7682 43.8181C50.1805 43.8181 53.5809 41.6699 57.2259 36.2323C59.2568 33.202 61.2784 30.1667 63.2906 27.1264C64.3949 28.0428 65.635 29.0289 66.8736 30.0827C69.753 32.5318 70.6982 34.8593 70.0709 37.0669C69.5918 38.7543 67.7849 40.4937 64.5696 38.8035C63.6324 38.3102 63.2322 37.9287 62.29 37.3728C61.784 37.0745 61.011 36.985 60.5474 37.2981C59.3437 38.1112 58.6551 39.1461 58.2618 40.427C57.8796 41.6735 59.2724 42.3323 60.7166 42.9088C61.9597 43.4048 64.632 43.8543 66.3357 43.9053C72.9753 44.1043 78.2944 41.0322 81.9973 33.1074C82.66 39.9516 85.4805 43.8243 90.3815 43.8243C93.6581 43.8243 96.9433 40.0285 98.38 36.2945C98.7922 37.8165 99.403 39.1403 100.191 40.2598C103.968 45.6223 111.293 44.4684 114.973 39.9145C116.111 38.5075 116.284 38.0021 116.284 38.0021C116.821 42.3014 120.685 43.8038 122.896 43.8038C125.374 43.8038 127.932 42.7541 129.725 39.1367C129.935 39.5294 130.164 39.9047 130.415 40.2598C134.191 45.6223 141.517 44.4684 145.197 39.9145C145.371 39.7007 145.521 39.5075 145.653 39.3331L145.76 42.1574L142.373 44.9424C136.694 49.6072 132.38 53.145 132.063 57.2654C131.658 62.5193 136.41 64.4719 140.01 64.7278C143.826 64.9992 147.1 63.1083 149.109 60.4619C150.878 58.1322 152.036 53.1186 151.95 48.1671C151.917 46.184 151.861 43.6629 151.817 40.9602C153.811 38.8854 156.057 36.2627 158.125 33.1937C160.379 29.8487 162.794 25.3566 164.031 21.8605C164.031 21.8605 166.129 21.877 168.369 21.7455C169.085 21.7035 169.291 21.835 169.158 22.305C168.998 22.8739 166.329 32.102 168.765 38.2494C170.433 42.458 174.192 43.8114 176.42 43.8114C179.03 43.8114 181.526 42.0456 182.863 39.4239C183.025 39.7159 183.193 39.9986 183.377 40.2602C187.153 45.6227 194.453 44.4612 198.159 39.9145C198.996 38.8885 199.47 38.0021 199.47 38.0021C200.265 42.4522 204.127 43.8266 206.338 43.8266C208.642 43.8266 210.829 42.9799 212.602 39.2181C212.677 40.8747 212.793 42.229 212.977 42.6557C213.09 42.9173 213.744 43.2447 214.221 43.403C216.328 44.1034 218.477 43.7724 219.273 43.6284C219.824 43.5282 220.253 43.132 220.312 42.1096C220.467 39.4239 220.372 34.9116 221.28 31.5577C222.805 25.93 224.228 23.747 224.902 22.6664C225.28 22.0604 225.706 21.9606 225.721 22.6016C225.753 23.8986 225.825 27.706 226.416 32.8225C226.85 36.5847 227.429 38.8089 227.875 39.5133C229.146 41.5259 230.716 41.6212 231.994 41.6212C232.807 41.6212 234.508 41.4199 234.356 40.139C234.282 39.5147 234.411 35.6558 235.915 30.1113C236.897 26.4904 238.533 23.2192 239.124 22.0228C239.342 21.5818 239.443 21.9293 239.439 21.9973C239.315 24.4907 239.036 32.6467 240.169 37.1076C241.706 43.1503 246.151 43.8266 247.7 43.8266C251.006 43.8266 253.71 41.5724 254.621 35.641C254.841 34.2134 254.516 33.1114 253.542 33.1114Z" fill="#343433"/>
</svg>
